<svg xmlns="http://www.w3.org/2000/svg" xmlns:xlink="http://www.w3.org/1999/xlink" viewBox="0 0 798.63 140.72"><defs><style>.cls-1{fill:none;}.cls-2{fill:#612e7b;}.cls-3{fill:#ffd70d;}.cls-4{clip-path:url(#clip-path);}</style><clipPath id="clip-path"><path class="cls-1" d="M112.44,9.61h34.13v99.2h65.48v29.57H112.44Z"/></clipPath></defs><g id="Слой_2" data-name="Слой 2"><g id="Слой_1-2" data-name="Слой 1"><path class="cls-2" d="M490.34,9.9h3.25V9.56c0-6.31,3-9.56,8.26-9.56a10.22,10.22,0,0,1,4.1.7V5.55h-.55c-3.35,0-4.15,1.4-4.15,4.05v.3H506v5.81h-4.7V36.82h-7.66V15.71h-3.25Z"/><path class="cls-2" d="M508.55,18.81c.8-6,5.45-9.76,12.35-9.76,7.71,0,11.71,4.51,11.71,10.76V30.12a21.25,21.25,0,0,0,.75,6.7h-7.9a15.09,15.09,0,0,1-.45-3.35,10.26,10.26,0,0,1-8.51,4.15c-5.1,0-8.9-2.6-8.9-7.76,0-3.65,2.1-6.45,6.35-7.95a35.07,35.07,0,0,1,11-1.55v-.6c0-3-1.45-4.5-4.41-4.5a4,4,0,0,0-4.35,3.55Zm10.3,13.51A6.19,6.19,0,0,0,525,25.86V24.81c-7.76.15-9.71,2.05-9.71,4.55C515.25,31.17,516.6,32.32,518.85,32.32Z"/><path class="cls-2" d="M554.42,19.61c-.5-3.15-2.3-4.35-4.5-4.35-3.41,0-5.16,2.85-5.16,8.1s1.86,8.06,5.36,8.06c2.3,0,3.9-1.3,4.45-3.81h7.65c-1.15,6.76-6,10-12.25,10-8.06,0-13.06-5.45-13.06-14.26,0-9.15,5.1-14.31,13-14.31,6.25,0,11.2,3.51,12.15,10.56Z"/><path class="cls-2" d="M582.63,9.9h7.66V36.82h-7.66v-3.6a8.38,8.38,0,0,1-7.65,4.4c-5.1,0-8.86-3.1-8.86-9.81V9.9h7.66V26.26c0,3.45,1.3,5.16,4,5.16,3,0,4.85-2.61,4.85-6.06Z"/><path class="cls-2" d="M595.49.8h7.65v36h-7.65Z"/><path class="cls-2" d="M609.29,15.71H606V9.9h3.3V3.65H617V9.9h5.5v5.81H617v11.4c0,2.6.7,4.06,4,4.06h1.45v5.75a12.23,12.23,0,0,1-4.6.7c-5.76,0-8.51-3.3-8.51-9.56Z"/><path class="cls-2" d="M625.8,47.92v-5.8h1.55c2.7,0,4.35-.6,6-5.15l.55-1.35L623.55,9.9h8.15l5.16,14.31,1,4.05,1.1-4.05,4.9-14.31h7.8l-11.4,29c-2.85,7.35-5.65,9.75-10.71,9.75A10.68,10.68,0,0,1,625.8,47.92Z"/><path class="cls-2" d="M662.77,23.36c0-9.15,5.2-14.31,13.2-14.31,8.16,0,13.26,5.51,13.26,14.31,0,9.11-5.25,14.26-13.26,14.26S662.77,32.22,662.77,23.36Zm18.61,0c0-5.2-1.9-8.1-5.41-8.1s-5.35,2.85-5.35,8.1,1.9,8.06,5.35,8.06S681.38,28.61,681.38,23.36Z"/><path class="cls-2" d="M690.93,9.9h3.25V9.56c0-6.31,3-9.56,8.26-9.56a10.22,10.22,0,0,1,4.1.7V5.55H706c-3.35,0-4.15,1.4-4.15,4.05v.3h4.7v5.81h-4.7V36.82h-7.66V15.71h-3.25Z"/><path class="cls-3" d="M492.69,51h7.65V87h-7.65Z"/><path class="cls-3" d="M505.5,51h7.65v6.41H505.5Zm0,9.11h7.65V87H505.5Z"/><path class="cls-3" d="M518.3,87V51H526V62.84a8,8,0,0,1,6.75-3.6c6.95,0,11.25,5.45,11.25,14.25,0,9.16-4.4,14.31-11.25,14.31A7.93,7.93,0,0,1,526,84.35V87ZM526,73.49c0,5.21,1.8,8.11,5.1,8.11s5.1-2.85,5.1-8.11-1.8-8-5.1-8S526,68.29,526,73.49Z"/><path class="cls-3" d="M560.37,87.8c-8.35,0-13.51-5.4-13.51-14.26,0-9.15,5.21-14.3,13.21-14.3s13.11,5.35,13.11,14.15v1.7H554.67c.4,4.31,2.4,6.61,5.7,6.61a4.76,4.76,0,0,0,5-3.55h8C572,84.35,567,87.8,560.37,87.8Zm-5.55-17.11h10.45c-.6-3.5-2.4-5.35-5.2-5.35S555.42,67.19,554.82,70.69Z"/><path class="cls-3" d="M577.38,60.09H585v3.75c1.7-3.2,4.31-4.6,7.06-4.6a3.83,3.83,0,0,1,2.65.85v6.45a13.69,13.69,0,0,0-3-.3c-4.6,0-6.66,2.6-6.66,6.85V87h-7.65Z"/><path class="cls-3" d="M597.44,69c.8-6,5.45-9.75,12.35-9.75,7.71,0,11.71,4.5,11.71,10.75V80.3a21.25,21.25,0,0,0,.75,6.7h-7.9a15.09,15.09,0,0,1-.45-3.35,10.25,10.25,0,0,1-8.51,4.15c-5.1,0-8.9-2.6-8.9-7.75,0-3.65,2.1-6.46,6.35-8a35.11,35.11,0,0,1,11-1.55v-.6c0-3-1.45-4.5-4.41-4.5A4,4,0,0,0,605.09,69Zm10.3,13.51A6.18,6.18,0,0,0,613.85,76V75c-7.76.15-9.71,2.06-9.71,4.56C604.14,81.35,605.49,82.5,607.74,82.5Z"/><path class="cls-3" d="M627,51h7.66V87H627Z"/><path class="cls-2" d="M649,69c.8-6,5.45-9.75,12.36-9.75,7.7,0,11.7,4.5,11.7,10.75V80.3a21.25,21.25,0,0,0,.75,6.7h-7.9a15.09,15.09,0,0,1-.45-3.35A10.24,10.24,0,0,1,657,87.8c-5.1,0-8.9-2.6-8.9-7.75,0-3.65,2.1-6.46,6.35-8a35.15,35.15,0,0,1,11-1.55v-.6c0-3-1.45-4.5-4.4-4.5A4,4,0,0,0,656.67,69ZM659.32,82.5a6.18,6.18,0,0,0,6.1-6.46V75c-7.76.15-9.71,2.06-9.71,4.56C655.71,81.35,657.07,82.5,659.32,82.5Z"/><path class="cls-2" d="M678.52,60.09h7.66v3.75c1.7-3.2,4.3-4.6,7.05-4.6a3.83,3.83,0,0,1,2.65.85v6.45a13.69,13.69,0,0,0-3-.3c-4.6,0-6.65,2.6-6.65,6.85V87h-7.66Z"/><path class="cls-2" d="M699.93,65.89h-3.3v-5.8h3.3V53.83h7.66v6.26h5.5v5.8h-5.5V77.3c0,2.6.7,4,4,4H713V87.1a12.23,12.23,0,0,1-4.6.7c-5.75,0-8.51-3.3-8.51-9.55Z"/><path class="cls-2" d="M739.85,78.85c0,5.3-4.9,9-11.9,9-6.81,0-11.71-3-12.71-9.65h7.66c.34,2.5,2.4,3.85,5.25,3.85s4.05-1,4.05-2.7c0-5.21-16.31-.55-16.31-11.36,0-4.5,3.65-8.7,10.86-8.7,6.45,0,11.35,2.95,12.1,9.75h-7.6c-.45-2.75-2-3.9-4.75-3.9-2,0-3.3,1-3.3,2.45C723.2,72.84,739.85,68.19,739.85,78.85Z"/><path class="cls-2" d="M492.54,119.17c.8-6,5.45-9.75,12.36-9.75,7.7,0,11.7,4.5,11.7,10.75v10.31a21.25,21.25,0,0,0,.75,6.7h-7.9a15.09,15.09,0,0,1-.45-3.35,10.24,10.24,0,0,1-8.51,4.15c-5.1,0-8.9-2.6-8.9-7.75,0-3.65,2.1-6.45,6.35-8a35.15,35.15,0,0,1,11-1.55v-.6c0-3-1.45-4.5-4.4-4.5a4,4,0,0,0-4.36,3.55Zm10.31,13.51a6.18,6.18,0,0,0,6.1-6.45v-1c-7.76.15-9.71,2-9.71,4.55C499.24,131.53,500.6,132.68,502.85,132.68Z"/><path class="cls-2" d="M522.05,110.27h7.66v3.55a8.55,8.55,0,0,1,7.8-4.4c5.15,0,9,3.15,9,9.8v18h-7.66V120.77c0-3.4-1.35-5.15-4.15-5.15-3.05,0-5,2.65-5,6.11v15.45h-7.66Z"/><path class="cls-2" d="M550.57,123.73c0-9.16,4.45-14.31,11.25-14.31a8,8,0,0,1,6.81,3.5V101.16h7.65v36h-7.65v-2.85a8.11,8.11,0,0,1-6.81,3.65C554.92,138,550.57,132.58,550.57,123.73Zm18.06,0c0-5.21-1.8-8.11-5.16-8.11s-5.05,2.85-5.05,8.11,1.8,8,5.05,8S568.63,129,568.63,123.73Z"/><path class="cls-2" d="M614.15,129c0,5.3-4.91,8.95-11.91,8.95-6.8,0-11.71-3-12.71-9.65h7.66c.35,2.5,2.4,3.85,5.25,3.85,2.7,0,4-1.05,4-2.7,0-5.2-16.31-.55-16.31-11.36,0-4.5,3.66-8.7,10.86-8.7,6.45,0,11.36,3,12.1,9.75h-7.6c-.45-2.75-2-3.9-4.75-3.9-2,0-3.3,1-3.3,2.45C597.49,123,614.15,118.37,614.15,129Z"/><path class="cls-2" d="M634.36,120c-.51-3.15-2.31-4.35-4.51-4.35-3.4,0-5.15,2.85-5.15,8.11s1.85,8,5.35,8a4.33,4.33,0,0,0,4.46-3.8h7.65c-1.15,6.75-6,10-12.26,10-8,0-13-5.45-13-14.25,0-9.16,5.1-14.31,13-14.31,6.26,0,11.21,3.5,12.16,10.55Z"/><path class="cls-2" d="M646.06,101.16h7.65v6.41h-7.65Zm0,9.11h7.65v26.91h-7.65Z"/><path class="cls-2" d="M671.22,138c-8.35,0-13.5-5.4-13.5-14.25,0-9.16,5.2-14.31,13.2-14.31S684,114.77,684,123.58v1.7H665.52c.4,4.3,2.4,6.6,5.7,6.6a4.78,4.78,0,0,0,5-3.55h8C682.83,134.53,677.83,138,671.22,138Zm-5.55-17.1h10.45c-.6-3.51-2.4-5.36-5.2-5.36S666.27,117.37,665.67,120.88Z"/><path class="cls-2" d="M688.23,110.27h7.65v3.55a8.57,8.57,0,0,1,7.81-4.4c5.15,0,9,3.15,9,9.8v18H705V120.77c0-3.4-1.35-5.15-4.15-5.15-3.06,0-5,2.65-5,6.11v15.45h-7.65Z"/><path class="cls-2" d="M734.25,120c-.5-3.15-2.3-4.35-4.5-4.35-3.4,0-5.15,2.85-5.15,8.11s1.85,8,5.35,8c2.3,0,3.9-1.3,4.45-3.8h7.66c-1.16,6.75-6,10-12.26,10-8.06,0-13.06-5.45-13.06-14.25,0-9.16,5.11-14.31,13-14.31,6.25,0,11.2,3.5,12.15,10.55Z"/><path class="cls-2" d="M758.31,138c-8.35,0-13.51-5.4-13.51-14.25,0-9.16,5.21-14.31,13.21-14.31s13.11,5.35,13.11,14.16v1.7H752.61c.4,4.3,2.4,6.6,5.7,6.6a4.76,4.76,0,0,0,5-3.55h8C769.92,134.53,764.92,138,758.31,138Zm-5.55-17.1h10.45c-.6-3.51-2.4-5.36-5.2-5.36S753.36,117.37,752.76,120.88Z"/><path class="cls-2" d="M798.63,129c0,5.3-4.9,8.95-11.91,8.95-6.8,0-11.7-3-12.7-9.65h7.65c.35,2.5,2.4,3.85,5.25,3.85s4.06-1.05,4.06-2.7c0-5.2-16.31-.55-16.31-11.36,0-4.5,3.65-8.7,10.85-8.7,6.46,0,11.36,3,12.11,9.75H790c-.45-2.75-2.06-3.9-4.76-3.9-2,0-3.3,1-3.3,2.45C782,123,798.63,118.37,798.63,129Z"/><circle class="cls-3" cx="155.98" cy="73.01" r="63.39"/><path class="cls-2" d="M0,10.56H92.67V37.42H34.12v27h51.1V91.12H34.12v46.24H0Z"/><path class="cls-2" d="M294.77,115.73H248.71l-7.27,21.63H207.13l45.31-126.8h40.65l45.31,126.8H302ZM257.47,90h28.72L275.75,59.23,271.83,44.5l-3.91,14.73Z"/><path class="cls-2" d="M447.11,98.39c0,26.66-22.37,42.33-52.77,42.33-30.76,0-53.33-14.36-57.43-44.2h35.8c1.87,11.57,10.07,17.91,22,17.91,11.56,0,17.52-4.48,17.52-11.75,0-25.17-73.65-6-73.65-55.57,0-22.37,18.27-39.9,50.72-39.9,26.85,0,50.53,12.86,54.26,42.88H407.21c-2-11.18-8.39-16.59-19.39-16.59-8.58,0-14.36,3.92-14.36,10.07C373.46,68,447.11,46.74,447.11,98.39Z"/><g class="cls-4"><ellipse class="cls-2" cx="155.98" cy="73.01" rx="63.39" ry="63.4"/></g></g></g></svg>